<svg width="1152" height="646" viewBox="0 0 1152 646" fill="none" xmlns="http://www.w3.org/2000/svg">
<circle cx="478" cy="684" r="684" fill="#F6F8F9"/>
<path d="M662.947 224.693L638.202 205.785C635.374 203.625 631.345 205.954 631.807 209.482L635.845 240.362L610.216 258.054C607.288 260.075 608.258 264.627 611.756 265.278L642.372 270.98L651.278 300.822C652.295 304.231 656.924 304.715 658.624 301.589L673.508 274.234L704.641 274.985C708.198 275.071 710.089 270.819 707.642 268.236L686.224 245.627L696.56 216.25C697.741 212.893 694.28 209.781 691.068 211.31L662.947 224.693Z" fill="#FCFF6E"/>
<path d="M662.947 224.693L638.202 205.785C635.374 203.625 631.345 205.954 631.807 209.482L635.845 240.362L610.216 258.054C607.288 260.075 608.258 264.627 611.756 265.278L642.372 270.98L651.278 300.822C652.295 304.231 656.924 304.715 658.624 301.589L673.508 274.234L704.641 274.985C708.198 275.071 710.089 270.819 707.642 268.236L686.224 245.627L696.56 216.25C697.741 212.893 694.28 209.781 691.068 211.31L662.947 224.693Z" stroke="#F2F559" stroke-width="6"/>
<path d="M662.947 224.693L638.202 205.785C635.374 203.625 631.345 205.954 631.807 209.482L635.845 240.362L610.216 258.054C607.288 260.075 608.258 264.627 611.756 265.278L642.372 270.98L651.278 300.822C652.295 304.231 656.924 304.715 658.624 301.589L673.508 274.234L704.641 274.985C708.198 275.071 710.089 270.819 707.642 268.236L686.224 245.627L696.56 216.25C697.741 212.893 694.28 209.781 691.068 211.31L662.947 224.693Z" stroke="#FFDD57" stroke-width="6"/>
</svg>
