<svg width="1132" height="700" viewBox="0 0 1132 700" fill="none" xmlns="http://www.w3.org/2000/svg">
<path fill-rule="evenodd" clip-rule="evenodd" d="M295.391 653.051L-248.366 67.3406L-262 79.9979L296.188 681.253L307.227 671.005L308.974 673.655L902.413 282.446L886.957 259L293.518 650.209L295.391 653.051Z" fill="#86E2FF"/>
<path fill-rule="evenodd" clip-rule="evenodd" d="M295.391 653.051L-248.366 67.3406L-262 79.9979L296.188 681.253L307.227 671.005L308.974 673.655L902.413 282.446L886.957 259L293.518 650.209L295.391 653.051Z" fill="white"/>
<path fill-rule="evenodd" clip-rule="evenodd" d="M328.574 435.005L-117.428 -45.4081L-244.84 72.8778L298.72 658.376L298.743 658.36L886.252 271.06L792.651 129.074L328.574 435.005Z" fill="#86E2FF"/>
<path fill-rule="evenodd" clip-rule="evenodd" d="M328.574 435.005L-117.428 -45.4081L-244.84 72.8778L298.72 658.376L298.743 658.36L886.252 271.06L792.651 129.074L328.574 435.005Z" fill="#2DC0FF"/>
<path fill-rule="evenodd" clip-rule="evenodd" d="M328.574 435.005L-117.428 -45.4081L-244.84 72.8778L298.72 658.376L298.743 658.36L886.252 271.06L792.651 129.074L328.574 435.005Z" fill="#00BAFF"/>
<path fill-rule="evenodd" clip-rule="evenodd" d="M328.574 435.005L-117.428 -45.4081L-244.84 72.8778L298.72 658.376L298.743 658.36L886.252 271.06L792.651 129.074L328.574 435.005Z" fill="#3DE0FF"/>
<path fill-rule="evenodd" clip-rule="evenodd" d="M328.574 435.005L-117.428 -45.4081L-244.84 72.8778L298.72 658.376L298.743 658.36L886.252 271.06L792.651 129.074L328.574 435.005Z" fill="#3DE0FF"/>
<path fill-rule="evenodd" clip-rule="evenodd" d="M295.789 671.587L-252.361 81.1447L-336.676 159.42L237.851 778.273L253.151 764.068L289.925 819.851L947.415 386.417L881.062 285.762L295.789 671.587Z" fill="#FF3868"/>
<g filter="url(#filter0_d)">
<circle cx="912" cy="235" r="180" fill="white"/>
</g>
<path d="M945.764 123.595C942.937 121.434 938.908 123.764 939.369 127.292L942.124 148.36L924.638 160.43C921.71 162.451 922.681 167.003 926.178 167.654L947.066 171.544L953.143 191.904C954.16 195.314 958.789 195.798 960.489 192.672L970.644 174.009L991.885 174.521C995.442 174.607 997.332 170.355 994.885 167.772L980.273 152.347L987.325 132.304C988.505 128.947 985.045 125.835 981.832 127.364L962.647 136.495L945.764 123.595Z" fill="#FCFF6E"/>
<path d="M945.764 123.595C942.937 121.434 938.908 123.764 939.369 127.292L942.124 148.36L924.638 160.43C921.71 162.451 922.681 167.003 926.178 167.654L947.066 171.544L953.143 191.904C954.16 195.314 958.789 195.798 960.489 192.672L970.644 174.009L991.885 174.521C995.442 174.607 997.332 170.355 994.885 167.772L980.273 152.347L987.325 132.304C988.505 128.947 985.045 125.835 981.832 127.364L962.647 136.495L945.764 123.595Z" stroke="#F2F559" stroke-width="6"/>
<path d="M945.764 123.595C942.937 121.434 938.908 123.764 939.369 127.292L942.124 148.36L924.638 160.43C921.71 162.451 922.681 167.003 926.178 167.654L947.066 171.544L953.143 191.904C954.16 195.314 958.789 195.798 960.489 192.672L970.644 174.009L991.885 174.521C995.442 174.607 997.332 170.355 994.885 167.772L980.273 152.347L987.325 132.304C988.505 128.947 985.045 125.835 981.832 127.364L962.647 136.495L945.764 123.595Z" stroke="#FFDD57" stroke-width="6"/>
<defs>
<filter id="filter0_d" x="692" y="35.0001" width="440" height="440" filterUnits="userSpaceOnUse" color-interpolation-filters="sRGB">
<feFlood flood-opacity="0" result="BackgroundImageFix"/>
<feColorMatrix in="SourceAlpha" type="matrix" values="0 0 0 0 0 0 0 0 0 0 0 0 0 0 0 0 0 0 127 0"/>
<feOffset dy="20"/>
<feGaussianBlur stdDeviation="20"/>
<feColorMatrix type="matrix" values="0 0 0 0 0 0 0 0 0 0 0 0 0 0 0 0 0 0 0.25 0"/>
<feBlend mode="normal" in2="BackgroundImageFix" result="effect1_dropShadow"/>
<feBlend mode="normal" in="SourceGraphic" in2="effect1_dropShadow" result="shape"/>
</filter>
</defs>
</svg>
