<svg width="40" height="40" viewBox="0 0 40 40" fill="none" xmlns="http://www.w3.org/2000/svg">
<path d="M0 20C0 31.0457 8.9543 40 20 40C31.0457 40 40 31.0457 40 20C40 8.9543 31.0457 0 20 0C8.9543 0 0 8.9543 0 20Z" fill="#00C2FF"/>
<path d="M0 20C0 31.0457 8.9543 40 20 40C31.0457 40 40 31.0457 40 20C40 8.9543 31.0457 0 20 0C8.9543 0 0 8.9543 0 20Z" fill="#A5FFC5"/>
<path d="M19.999 28L27.999 20L19.999 12" stroke="#32DC6E" stroke-width="4" stroke-linecap="round" stroke-linejoin="round"/>
<path d="M11.999 20H27.999" stroke="#32DC6E" stroke-width="4" stroke-linecap="round" stroke-linejoin="round"/>
</svg>
